<?xml version="1.0" standalone="no"?><!DOCTYPE svg PUBLIC "-//W3C//DTD SVG 1.1//EN" "http://www.w3.org/Graphics/SVG/1.1/DTD/svg11.dtd"><svg t="1774267503965" class="icon" viewBox="0 0 1024 1024" version="1.1" xmlns="http://www.w3.org/2000/svg" p-id="3726" width="32" height="32" xmlns:xlink="http://www.w3.org/1999/xlink"><path d="M941.1 447.6L790 377.1V177.5c0-63.4-43.8-111.2-101.9-111.2H335.6c-56.2 0-101.9 45.7-101.9 101.9v206.6L81.1 448.2H81c-0.3 0.1-0.6 0.3-0.9 0.5-0.1 0-0.2 0.1-0.3 0.1-0.3 0.2-0.7 0.4-1 0.6 0 0-0.1 0-0.1 0.1-0.4 0.2-0.7 0.5-1.1 0.7-0.1 0.1-0.2 0.1-0.3 0.2-0.3 0.2-0.5 0.4-0.8 0.6-0.2 0.1-0.3 0.3-0.5 0.4s-0.3 0.3-0.5 0.4-0.3 0.3-0.5 0.5l-0.4 0.4-0.5 0.5-0.4 0.4-0.5 0.5-0.4 0.4c-0.2 0.2-0.3 0.4-0.5 0.5-0.1 0.1-0.2 0.3-0.4 0.4-0.2 0.2-0.3 0.4-0.5 0.6-0.1 0.1-0.2 0.3-0.3 0.4l-0.6 0.9-0.1 0.1c-0.2 0.4-0.5 0.7-0.7 1.1v0.1c-0.2 0.4-0.4 0.7-0.6 1.1 0 0.1-0.1 0.2-0.1 0.3-0.1 0.3-0.3 0.6-0.4 0.9v0.1c-0.1 0.1-0.1 0.3-0.2 0.4-0.1 0.2-0.2 0.5-0.3 0.7-0.1 0.2-0.2 0.4-0.2 0.6-0.1 0.2-0.1 0.4-0.2 0.5-0.1 0.3-0.2 0.5-0.2 0.8 0 0.1-0.1 0.3-0.1 0.4-0.1 0.3-0.2 0.6-0.2 0.9 0 0.1-0.1 0.2-0.1 0.3-0.1 0.2-0.1 0.4-0.2 0.7-0.7 2.4-1.1 4.9-1.1 7.5v354.9C65.9 898.9 123 956 193.3 956h635.1c70.3 0 127.5-57.2 127.5-127.5V474.7c1.5-11-4.2-22.2-14.8-27.1zM868.2 471L790 507.4v-72.9l78.2 36.5zM285.7 168.2c0-27.5 22.4-49.9 49.9-49.9H688c13.3 0 25.5 5.4 34.5 15.1 9.9 10.8 15.4 26.4 15.4 44.1v354.2L516 635 285.6 530.6c0-0.6 0.1-1.2 0.1-1.8V168.2z m-52 338.9l-79.9-36.2 79.9-38.4v74.6zM828.4 904H193.3c-41.6 0-75.5-33.9-75.5-75.5V511.7l387.5 175.6c3.4 1.5 7.1 2.3 10.7 2.3 3.7 0 7.5-0.8 11-2.4l376.8-175.4v316.8c0.1 41.6-33.8 75.4-75.4 75.4z" p-id="3727" fill="#8a8a8a"></path><path d="M654 285.6H369.7c-14.4 0-26-11.6-26-26s11.6-26 26-26H654c14.4 0 26 11.6 26 26s-11.6 26-26 26zM534.4 431.6H370.7c-14.4 0-26-11.6-26-26s11.6-26 26-26h163.8c14.4 0 26 11.6 26 26s-11.7 26-26.1 26z" p-id="3728" fill="#8a8a8a"></path></svg>