<?xml version="1.0" standalone="no"?><!DOCTYPE svg PUBLIC "-//W3C//DTD SVG 1.1//EN" "http://www.w3.org/Graphics/SVG/1.1/DTD/svg11.dtd"><svg t="1774267674997" class="icon" viewBox="0 0 1024 1024" version="1.1" xmlns="http://www.w3.org/2000/svg" p-id="6711" xmlns:xlink="http://www.w3.org/1999/xlink" width="32" height="32"><path d="M777.83 490.428l-85.606-82.671a35.226 35.226 0 1 1 49.015-50.586L887.876 499.03c13.995 13.517 14.336 35.84 0.82 49.835L741.99 700.279a35.226 35.226 0 0 1-50.517-49.015l87.586-90.385H429.875a35.226 35.226 0 0 1 0-70.451H777.83zM171.76 839.475h434.108a35.226 35.226 0 0 1 0 70.383H136.533a35.226 35.226 0 0 1-35.225-35.157V170.667c0-19.456 15.77-35.226 35.225-35.226h469.334a35.226 35.226 0 0 1 0 70.451H171.69v633.515z" p-id="6712" fill="#8a8a8a"></path></svg>