<?xml version="1.0" standalone="no"?><!DOCTYPE svg PUBLIC "-//W3C//DTD SVG 1.1//EN" "http://www.w3.org/Graphics/SVG/1.1/DTD/svg11.dtd"><svg t="1776149182892" class="icon" viewBox="0 0 1024 1024" version="1.1" xmlns="http://www.w3.org/2000/svg" p-id="4808" xmlns:xlink="http://www.w3.org/1999/xlink" width="48" height="48"><path d="M512 112.768a121.898667 121.898667 0 1 0 0 243.797333 121.898667 121.898667 0 0 0 0-243.797333zM292.565333 234.666667a219.434667 219.434667 0 1 1 438.869334 0 219.434667 219.434667 0 0 1-438.869334 0z m176.768 341.333333c-193.365333 0-341.333333 138.282667-341.333333 298.666667a42.666667 42.666667 0 1 1-85.333333 0c0-216.661333 195.882667-384 426.666666-384H533.333333a42.666667 42.666667 0 1 1 0 85.333333H469.333333z m347.136-94.165333a42.666667 42.666667 0 0 0-60.373333 0l-274.261333 274.261333a42.666667 42.666667 0 0 0-12.501334 30.165333V896a42.666667 42.666667 0 0 0 42.666667 42.666667h109.696a42.666667 42.666667 0 0 0 30.165333-12.501334l274.346667-274.304a42.666667 42.666667 0 0 0 0-60.330666l-109.738667-109.696zM554.666667 853.333333v-49.365333l231.637333-231.637333 49.365333 49.365333L604.032 853.333333H554.666667z" fill="#8a8a8a" p-id="4809"></path></svg>