<svg version="1.0" xmlns="http://www.w3.org/2000/svg" width="800.000000" height="800.000000" viewBox="0 0 800.000000 800.000000" preserveAspectRatio="xMidYMid meet">
  <metadata>
    <rdf:RDF xmlns:rdf="http://www.w3.org/1999/02/22-rdf-syntax-ns#" xmlns:rdfs="http://www.w3.org/2000/01/rdf-schema#" xmlns:dc="http://purl.org/dc/elements/1.1/">
      <rdf:Description dc:format="image/svg+xml" dc:Label="1" dc:ContentProducer="001191330110MACRLGPT8B00000" dc:ProduceID="373865476" dc:ReservedCode1="E+jj/9frFpxVXFtpM5Uf23sHbWOXGL3sT+AbdjootZw=" dc:ContentPropagator="001191330110MACRLGPT8B00000" dc:PropagateID="373865476" dc:ReservedCode2="E+jj/9frFpxVXFtpM5Uf23sHbWOXGL3sT+AbdjootZw="/>
    </rdf:RDF>
  </metadata>
  <g transform="translate(0.000000,800.000000) scale(0.100000,-0.100000)" fill="#FFD700" stroke="none">
    <path d="M3185 6623 c-21 -193 -88 -310 -205 -362 -40 -17 -159 -45 -229 -53 -14 -2 -26 -8 -28 -14 -2 -7 39 -19 108 -33 61 -12 132 -32 158 -45 109 -56 178 -179 196 -353 5 -44 11 -63 21 -63 9 0 14 11 14 33 1 83 50 234 95 293 57 75 161 124 296 140 31 4 62 10 69 14 21 13 1 30 -34 30 -49 0 -177 35 -234 64 -98 50 -160 158 -184 320 -14 102 -33 115 -43 29z"/>
    <path d="M4096 6477 c-25 -84 -71 -130 -150 -146 -33 -7 -48 -31 -19 -31 10 0 41 -11 70 -24 43 -20 56 -33 76 -73 13 -26 27 -60 31 -75 7 -31 26 -38 26 -10 0 26 45 115 69 136 11 10 42 26 68 35 27 9 49 20 51 26 2 5 -18 14 -43 20 -72 19 -125 78 -140 158 -4 20 -11 37 -15 37 -5 0 -16 -24 -24 -53z"/>
    <path d="M2247 6140 c-3 -8 -8 -39 -11 -68 -7 -69 -44 -149 -89 -194 -40 -40 -119 -74 -197 -84 -29 -4 -49 -11 -47 -17 2 -6 33 -17 69 -23 157 -29 245 -121 267 -280 15 -100 29 -102 42 -6 11 77 39 141 85 192 47 52 92 75 175 90 35 7 70 14 77 16 25 7 2 22 -45 29 -73 11 -152 44 -194 82 -46 42 -88 126 -96 193 -6 55 -28 96 -36 70z"/>
    <path d="M4650 5769 c-233 -38 -401 -278 -361 -517 21 -123 100 -243 201 -307 149 -93 355 -92 492 4 108 75 179 188 199 316 21 135 -26 277 -126 376 -70 70 -134 106 -222 124 -76 16 -103 17 -183 4z m183 -175 c60 -20 126 -79 157 -140 34 -67 35 -188 3 -250 -52 -98 -131 -152 -234 -161 -215 -20 -373 201 -286 400 59 131 219 199 360 151z"/>
    <path d="M2547 5183 c-3 -5 -8 -24 -12 -43 -19 -91 -73 -150 -155 -171 -59 -15 -63 -26 -15 -35 62 -11 123 -59 150 -117 14 -28 25 -62 25 -74 0 -14 6 -23 15 -23 9 0 15 9 15 25 0 36 44 119 76 144 15 12 52 28 82 37 59 18 58 25 -6 43 -70 20 -119 72 -143 152 -21 69 -24 75 -32 62z"/>
    <path d="M3615 4899 c-339 -56 -351 -59 -374 -86 -13 -15 -66 -109 -118 -208 -52 -99 -137 -260 -190 -358 -94 -176 -95 -180 -84 -217 16 -53 77 -104 200 -167 117 -61 148 -65 190 -25 24 22 189 285 282 449 22 39 28 43 74 47 130 14 235 17 235 8 0 -12 -207 -341 -350 -557 -34 -52 -52 -93 -68 -160 -49 -194 -204 -771 -212 -784 -6 -12 -87 -14 -506 -13 -309 0 -511 -3 -532 -10 -17 -5 -37 -18 -42 -28 -6 -11 -10 -131 -10 -294 0 -263 1 -277 20 -296 20 -20 33 -20 740 -20 676 0 721 1 738 18 10 10 69 110 132 222 100 181 179 320 256 457 l24 42 63 -24 c34 -13 165 -66 292 -118 l230 -94 22 -119 c66 -365 145 -773 154 -802 14 -43 66 -71 103 -54 14 6 33 23 42 38 17 25 16 37 -55 418 -101 539 -118 618 -139 638 -21 21 -726 308 -757 308 -36 0 -59 -28 -123 -145 -91 -168 -333 -598 -344 -613 -8 -9 -140 -12 -622 -10 l-611 3 -3 158 -3 157 514 0 514 0 21 23 c21 22 115 353 228 801 19 76 42 152 50 168 8 16 68 111 133 211 284 440 352 555 349 589 -2 19 -13 38 -28 50 -24 17 -39 17 -295 8 -148 -6 -279 -16 -291 -21 -11 -6 -85 -118 -164 -250 -79 -131 -149 -239 -156 -239 -15 0 -102 49 -110 61 -3 6 5 31 18 57 56 110 300 558 307 565 8 8 204 43 521 92 138 22 157 27 178 50 47 54 10 136 -60 134 -18 0 -190 -27 -383 -60z"/>
    <path d="M4801 4564 c-41 -52 -48 -37 177 -378 l144 -218 33 5 c28 5 210 68 503 176 61 23 84 28 87 19 3 -7 11 -35 19 -61 l14 -48 -41 -19 c-37 -17 -179 -73 -570 -224 -65 -25 -121 -46 -125 -46 -7 0 -40 39 -284 330 -62 74 -121 136 -131 138 -51 10 -63 -5 -280 -330 -119 -178 -221 -335 -227 -349 -10 -21 -9 -33 1 -55 15 -31 -2 -21 568 -329 l315 -170 33 -185 c51 -280 111 -624 144 -825 37 -228 35 -221 61 -245 31 -29 83 -26 115 6 31 31 32 21 -33 384 -25 140 -58 329 -74 420 -16 91 -43 246 -61 345 -17 99 -37 189 -44 201 -11 17 -338 199 -743 412 -59 31 -80 47 -75 57 44 74 280 425 288 425 6 0 84 -88 174 -196 156 -186 186 -214 232 -214 11 0 164 56 342 125 569 220 540 206 563 260 20 48 18 101 -7 181 -41 136 -90 186 -182 185 -25 0 -88 -17 -152 -41 -247 -94 -388 -141 -395 -133 -4 4 -62 91 -129 193 -67 102 -131 195 -143 208 -30 33 -90 31 -117 -4z"/>
    <path d="M1297 1478 c-26 -21 -38 -63 -26 -98 23 -65 -195 -60 2733 -60 1913 0 2672 3 2689 11 13 6 31 25 39 42 13 27 13 37 2 64 -8 18 -22 37 -33 43 -31 16 -5382 14 -5404 -2z"/>
  </g>
</svg>